<svg width="40" height="30" viewBox="0 0 40 30" fill="none" xmlns="http://www.w3.org/2000/svg">
<path fill-rule="evenodd" clip-rule="evenodd" d="M36.6667 0H3.33333C1.5 0 0 1.5 0 3.33333V26.6667C0 28.5 1.5 30 3.33333 30H36.6667C38.5 30 39.9833 28.5 39.9833 26.6667L40 3.33333C40 1.5 38.5 0 36.6667 0ZM36.666 26.6665H3.33265V3.33316H36.666V26.6665ZM35.0007 21.6664L31.684 24.9831C29.5007 23.3498 27.884 21.0164 27.134 18.3331C26.834 17.2664 26.6674 16.1498 26.6674 14.9998C26.6674 13.8498 26.834 12.7331 27.134 11.6664C27.884 8.96645 29.5007 6.64978 31.684 5.01645L35.0007 8.33311L32.484 11.6664H29.7507C29.384 12.7164 29.1674 13.8331 29.1674 14.9998C29.1674 16.1664 29.384 17.2831 29.7507 18.3331H32.484L35.0007 21.6664ZM15 15C17.75 15 20 12.75 20 10C20 7.25 17.75 5 15 5C12.25 5 10 7.25 10 10C10 12.75 12.25 15 15 15ZM16.666 9.99983C16.666 9.08316 15.916 8.33316 14.9993 8.33316C14.0826 8.33316 13.3326 9.08316 13.3326 9.99983C13.3326 10.9165 14.0826 11.6665 14.9993 11.6665C15.916 11.6665 16.666 10.9165 16.666 9.99983ZM25 22.6497C25 18.483 18.3833 16.683 15 16.683C11.6167 16.683 5 18.483 5 22.6497V24.9997H25V22.6497ZM15.0011 20C12.8345 20 10.3678 20.8333 9.13446 21.6667H20.8678C19.6178 20.8167 17.1678 20 15.0011 20Z" fill="#3C4D85"/>
</svg>
