<svg width="23" height="11" viewBox="0 0 23 11" fill="none" xmlns="http://www.w3.org/2000/svg">
<path d="M22.4574 4.7655L22.4567 4.76468L17.8912 0.297984C17.5491 -0.036632 16.9959 -0.0353867 16.6555 0.300904C16.3151 0.637152 16.3164 1.18102 16.6584 1.51567L19.7237 4.51455H1.21963C0.737061 4.51455 0.345886 4.89911 0.345886 5.37353C0.345886 5.84794 0.737061 6.23251 1.21963 6.23251H19.7236L16.6585 9.23138C16.3164 9.56604 16.3151 10.1099 16.6555 10.4462C16.996 10.7825 17.5492 10.7836 17.8912 10.4491L22.4567 5.98237L22.4575 5.98156C22.7997 5.64578 22.7986 5.10016 22.4574 4.7655Z" fill="#112468"/>
</svg>
