<svg width="34" height="34" viewBox="0 0 34 34" fill="none" xmlns="http://www.w3.org/2000/svg">
<path fill-rule="evenodd" clip-rule="evenodd" d="M32.3 0H1.7C0.755556 0 0 0.755556 0 1.7V32.3C0 33.0556 0.755556 34 1.7 34H32.3C33.0556 34 34 33.0556 34 32.3V1.7C34 0.755556 33.0556 0 32.3 0ZM11.3326 7.55537H7.55482V11.3331H11.3326V7.55537ZM26.4452 7.55537H15.1118V11.3331H26.4452V7.55537ZM26.4452 15.1113H15.1118V18.8891H26.4452V15.1113ZM15.1118 22.6667H26.4452V26.4444H15.1118V22.6667ZM7.55482 15.1113H11.3326V18.8891H7.55482V15.1113ZM11.3326 22.6667H7.55482V26.4444H11.3326V22.6667ZM3.77852 30.2224H30.223V3.77796H3.77852V30.2224Z" fill="#3C4D85"/>
</svg>
