<svg width="38" height="34" viewBox="0 0 38 34" fill="none" xmlns="http://www.w3.org/2000/svg">
<path fill-rule="evenodd" clip-rule="evenodd" d="M13.6003 34H28.9003C30.3113 34 31.5183 33.15 32.0283 31.926L37.1623 19.941C37.3153 19.55 37.4003 19.142 37.4003 18.7V15.3C37.4003 13.43 35.8703 11.9 34.0003 11.9H23.2733L24.8883 4.13099L24.9393 3.58699C24.9393 2.89 24.6503 2.244 24.1913 1.785L22.3893 0L11.1863 11.203C10.5743 11.815 10.2003 12.665 10.2003 13.6V30.6C10.2003 32.47 11.7303 34 13.6003 34ZM13.5998 13.6001L20.9778 6.22209L18.6998 15.3001H33.9998V18.7001L28.8998 30.6001H13.5998V13.6001ZM6.79999 13.5998H0V33.9998H6.79999V13.5998Z" fill="#3C4D85"/>
</svg>
